<?xml version="1.0" encoding="UTF-8"?>
<svg id="Ebene_1" xmlns="http://www.w3.org/2000/svg" viewBox="0 0 199.48 199.48">
  <defs>
    <style>
      .cls-1 {
        fill: #e5422b;
      }
    </style>
  </defs>
  <path class="cls-1" d="M178.48,0H21C9.33,0,0,9.33,0,21v157.48c0,11.67,9.33,21,21,21h157.48c11.43,0,21-9.33,21-21V21c0-11.67-9.33-21-21-21M99.39,121.55c6.53,0,13.53-2.57,20.3-8.63l9.33,10.73c-9.8,7.93-21,12.37-32.2,12.37-22.16,0-36.16-14.7-32.9-35.46,3.27-20.76,22.16-35.46,44.33-35.46,10.73,0,20.76,4.2,27.76,11.9l-13.07,10.73c-3.73-4.9-10.03-8.17-17.03-8.17-13.3,0-23.56,8.63-25.66,21-1.87,12.37,5.6,21,19.13,21"/>
</svg>