<svg xmlns="http://www.w3.org/2000/svg" viewBox="0 0 23.733 26.165">
  <g transform="translate(-21.6 -17.3)">
    <path id="Pfad_42" data-name="Pfad 42" d="M45.165,24.2,38.4,17.44a.516.516,0,0,0-.335-.14H28.309a2.434,2.434,0,0,0-2.432,2.432v9.42H23a1.384,1.384,0,0,0-1.4,1.4v8.19a1.384,1.384,0,0,0,1.4,1.4h2.879v.895a2.434,2.434,0,0,0,2.432,2.432H42.9a2.434,2.434,0,0,0,2.432-2.432V24.54a.762.762,0,0,0-.168-.335Zm-1.537-.14H39.966a1.461,1.461,0,0,1-1.454-1.454V18.949ZM22.578,38.713v-8.19A.43.43,0,0,1,23,30.1H37.142a.43.43,0,0,1,.419.419v8.19a.43.43,0,0,1-.419.419H23A.43.43,0,0,1,22.578,38.713ZM42.9,42.43H28.309a1.461,1.461,0,0,1-1.454-1.454v-.895H37.114a1.384,1.384,0,0,0,1.4-1.4V30.522a1.384,1.384,0,0,0-1.4-1.4H26.855V19.7a1.461,1.461,0,0,1,1.454-1.454h9.253v4.361a2.434,2.434,0,0,0,2.432,2.432h4.361V41A1.475,1.475,0,0,1,42.9,42.43Z" fill="#fff"/>
    <path id="Pfad_43" data-name="Pfad 43" d="M33.726,73.37A1.392,1.392,0,0,0,32.217,72H30.4v4.025h.867V74.712h.95A1.355,1.355,0,0,0,33.726,73.37Zm-1.621.559h-.867V72.783h.867c.419,0,.727.224.727.559A.65.65,0,0,1,32.105,73.929Z" transform="translate(-6.34 -39.409)" fill="#fff"/>
    <path id="Pfad_44" data-name="Pfad 44" d="M49.074,74.013A2.092,2.092,0,0,0,46.754,72H45.3v4.025h1.454a2.06,2.06,0,0,0,2.32-2.013Zm-2.879-1.23h.7a1.243,1.243,0,0,1,1.314,1.146,1.219,1.219,0,0,1-1.314,1.314h-.7Z" transform="translate(-17.075 -39.409)" fill="#fff"/>
    <path id="Pfad_45" data-name="Pfad 45" d="M63.167,74.46h2.013v-.783H63.167v-.895H65.4V72H62.3v4.053h.867Z" transform="translate(-29.323 -39.409)" fill="#fff"/>
  </g>
</svg>
